<?xml version="1.0" encoding="utf-8"?>
<!-- Generator: Adobe Illustrator 22.1.0, SVG Export Plug-In . SVG Version: 6.00 Build 0)  -->
<svg version="1.1" id="Layer_1" xmlns="http://www.w3.org/2000/svg" xmlns:xlink="http://www.w3.org/1999/xlink" x="0px" y="0px"
	 viewBox="0 0 1080 300" style="enable-background:new 0 0 1080 300;" xml:space="preserve">
<style type="text/css">
	.st0{fill:#FAF0F4;}
</style>
<g>
	<path class="st0" d="M42.4,271.6h-0.7v0.5h0.7V271.6z M110.9,272l0.1-0.4c-0.6-0.3-1.4-0.7-2.6-1.3c-1.5-0.7-3.6-2-6.5-3.8
		c-2.8-1.8-5.9-4.8-10.4-11.1c-4.5-6.2-9.8-13.7-14.3-20.2C72.8,229,68.7,224.5,65,222c-3.6-2.5-10.3-4.5-19.8-5.4
		c-4.4-0.4-7.3,0.1-8,0.2c-0.6,0.1-2.6,0.7-2.7,0.6c-0.1-0.1,38.7-30.3,42.4-33.1c3.7-2.8,12.5-8.4,15.2-9.8
		c5-2.7,10.4-4.7,10.4-4.7v-0.3H75.1v0.4c0,0,1.9,1.4,2.5,3.6c0.6,2.5-1.1,6.1-3.1,8.3c-2,2.2-5.1,4.7-8.2,7.2
		c0,0-26.5,20.7-30,23.6c-3.6,2.9-6.8,4.8-7.2,5c-0.5,0.2-1.4,0.4-1.8,0.2c-0.4-0.2-1-0.5-1-4.3v-31.6c0-2.5,0.6-5.9,1.9-8.5
		c1.3-2.5,2.7-3.1,3.2-3.5v-0.4l-22.6,0v0.4c0.4,0.3,0.9,0.9,1.5,1.8c0.8,1,1.4,2,2,3c0.6,1.1,1.3,3.6,2,7.5
		c0.8,3.9,1.1,6.4,1.1,7.7v65.5c0,4.4-1.8,10.4-2.9,12c-1,1.6-2.6,3-4.7,4.2v0.4h26.8v-0.4c-1.9-0.7-3.8-2.2-5.3-4.1
		c-1.5-2-3.1-6.5-3.1-12l0-25c0-3.2,1.5-6.1,3.8-8.2c2.3-2.1,5.1-2.9,8.3-2.9c5.2,0,10.1,1.8,14.3,5.3c4.2,3.5,8.3,8.3,12.1,14.3
		L86.5,272H110.9z M149.9,272h14.7v-0.4c-2.5-1.3-4.1-2.5-5.4-4.1c-1.3-1.6-3.8-7.5-3.8-12.1v-73.6c0-1.9,0.6-5.5,2.3-8.3
		c1.3-2,2.9-3.3,3.3-3.7v-0.4l-11,0H150h-0.1l-11,0v0.4c0.5,0.4,2.1,1.7,3.3,3.7c1.7,2.8,2.3,6.4,2.3,8.3v73.6
		c0,4.6-2.4,10.5-3.8,12.1c-1.3,1.6-2.9,2.8-5.4,4.1v0.4H149.9z M240.8,216.6H211l0.1-43.8h10.5c14.5,0,24.9,0.3,31.3,1
		c6.3,0.7,11.1,2.4,14.3,5.4c3.2,2.9,4.9,7.8,4.9,14.8c0,6.4-2.4,11.8-7.1,16C260.2,214.2,252.2,216.6,240.8,216.6 M278.8,272h20.7
		v-0.4c-1.1-0.7-2-1.3-2.7-1.8c-0.7-0.5-1.9-1.5-3.5-3c-1.7-1.5-4.6-7-8.9-16.6c-4.2-9.4-7-15.4-8.4-17.7c-1.4-2.3-3.1-4-5.2-5.3
		c-2.2-1.3-5.8-3.1-10.9-5.3l-5.8-2.6l0-0.4v0h0l0.1-0.4l6.6-1.2c9.7-1.7,16.7-4.6,20.7-8.6c4.1-4,6.1-8.6,6.1-13.7
		c0-7.1-2.3-12.5-7-16.2c-4.7-3.7-10.5-6.2-17.4-7.4c-6.9-1.2-14.8-1.8-23.6-1.8h-46v0.5c0.7,0.7,1.3,1.3,1.8,1.9
		c0.5,0.7,1.1,1.7,2,3.1c0.8,1.4,1.4,2.9,1.9,4.5c0.4,1.6,0.6,3.4,0.6,5.4v70.5c0,0.9-0.3,2.7-1,5.4c-0.7,2.7-1.6,4.9-2.7,6.6
		c-1.1,1.6-2.8,3-5.2,4.2v0.4l30.7,0v-0.3c-1.2-0.4-2.2-1-3-1.6c-0.9-0.7-1.8-1.7-2.7-2.8c-0.9-1.2-1.7-2.9-2.3-5.3
		c-0.6-2.3-0.9-4.5-0.9-6.5l-1.8-35.8l5.9,0.3c14.3,0,23.8,0.3,28.1,0.9c4.4,0.6,8.3,2.1,11.7,4.6c3.3,2.5,6.1,6.1,8.3,11
		c2.1,4.7,4.5,11,7.1,18.5c2.5,7.4,4.3,12.3,5.3,14.4L278.8,272z M387.3,94.2l23.6-64.4l-8.3,0l-11.3,30.8h-29.6L373,29.8h-2.1h-9.5
		c-14.1,0-34.9-1-45,4.7c-4.9,2.7-11.4,8.3-11.7,10.2c-0.3,1.9,1.2,4.6,3.9,4.6s5.2-1.3,5.2-3.3c0-2-1.7-3-3.4-2.4
		c-1.7,0.6-1.1-0.4-0.3-1.7c4-6.1,8.9-7.4,13.8-8.9c4.9-1.5,15-1.7,18.9-1.8c3.9-0.1,17.8-0.1,21.4-0.1c0,0-18.4,50.8-21.1,58.2
		c-0.5,1.3-1.2,3-2,4.9h8.4c0,0,0,0,0,0c2.4-6.4,11.9-32.3,11.9-32.3h29.6L379,94.2L387.3,94.2z M406.9,192.7l4.7-14.8l-1.8-0.9
		c-4.5-2-10.6-3.9-18.2-5.7c-7.6-1.8-14.5-2.7-20.4-2.7c-11.2,0-21.1,2.4-29.3,7.1c-8.2,4.7-12.3,12.3-12.3,22.6
		c0,5.5,1.6,10,4.8,13.4c3.2,3.5,7.4,6.2,12.4,8.1c5.1,1.9,11,3.5,17.7,4.8l4.3,0.9c5.2,1,10.5,2,15.7,3.1
		c5.8,1.4,10.4,3.5,13.6,6.2c3.2,2.7,4.9,6.8,4.9,12c0,8-3.5,14.1-10.4,18.2c-6.8,4-14.4,6-22.5,6c-8.8,0-17.6-1.9-26.2-5.6
		c-8.7-3.7-14.2-9.7-16.2-17.8l-0.3-1.2l-0.4-0.3l-5.6,16l2.4,1.2c5.7,2.6,12.3,4.9,19.6,6.9c7.3,1.9,14.7,2.9,22,2.9
		c15.2,0,27.4-3.1,36.3-9.1c8.8-6,13.3-14.6,13.3-25.7c0-5.7-2.6-10.3-7.8-13.6c0,0,4.7,3.2,0,0c-6.8-4.7-23.2-8.3-30.5-9.6
		l-3.3-0.7c-7.5-1.5-13.4-2.9-17.6-4.2c-4.2-1.3-7.9-3.4-10.9-6.3c-3-3-4.6-7.1-4.6-12.4c0-6.6,2.9-11.7,8.6-15.2
		c5.7-3.5,13.1-5.2,22.2-5.2c7.4,0,14.7,1.6,21.8,4.8c7.1,3.3,11.5,8.4,13,15.2l0.3,1.2L406.9,192.7z M444.4,64.7
		c0,1.2-0.2,2.8-0.6,4.7c-0.4,1.9-0.9,4-1.6,6.1c-0.7,2.2-1.6,4.3-2.6,6.5c-1,2.2-2.2,4.1-3.6,5.9c-1.3,1.8-2.8,3.2-4.5,4.3
		c-1.7,1.1-3.4,1.6-5.3,1.6c-2.3,0-4.2-0.7-5.7-2.2c-1.5-1.5-2.3-3.7-2.3-6.8c0-1.6,0.2-3.4,0.6-5.5c0.4-2.1,0.9-4.2,1.6-6.4
		c0.7-2.2,1.6-4.4,2.6-6.5c1-2.1,2.2-4,3.5-5.6c1.3-1.7,2.8-3,4.4-4c1.6-1,3.3-1.5,5.1-1.5c3.1,0,5.3,0.8,6.6,2.5
		C443.8,59.6,444.4,61.9,444.4,64.7 M448.2,79.3c1.5-3.1,2.3-6.4,2.3-9.9c0-1.7-0.3-3.4-0.8-5.2c-0.6-1.8-1.4-3.5-2.6-5
		c-1.2-1.5-2.6-2.7-4.4-3.7c-1.8-1-3.9-1.4-6.2-1.4c-2.6,0-5.4,0.7-8.3,2c-2.9,1.3-5.5,3.1-7.9,5.4c-2.4,2.3-4.3,5-5.8,8.2
		c-1.5,3.2-2.3,6.6-2.3,10.2c0,2,0.3,4,1,5.8c0.7,1.8,1.6,3.4,2.9,4.8c1.3,1.4,2.8,2.5,4.5,3.3c1.7,0.8,3.7,1.3,5.9,1.3
		c2.6,0,5.3-0.7,8.1-2c2.8-1.4,5.4-3.2,7.8-5.6C444.7,85.2,446.7,82.4,448.2,79.3 M502,166.5c-17.9,0-32.9,5.1-44.5,15.2
		C445.9,191.8,440,205,440,220.8c0,11.8,3.1,21.8,9.1,29.9c6.1,8.1,14.1,14.1,23.9,18.1c9.8,3.9,20.5,5.9,31.9,5.9
		c6.2,0,11.6-0.6,16.1-1.7c4.5-1.1,8.4-2.6,11.6-4.3c3.2-1.7,6.8-4,10.7-6.7l1.4-1l-3.1-12.2l-0.3,0.2l-0.8,1.5
		c-3.9,7.4-9,13-15.1,16.8c-6.2,3.8-13.5,5.7-21.8,5.7c-15.2,0-27.2-5.3-35.9-15.7c-8.6-10.4-13-23.2-13-38
		c0-14.4,4.1-26.7,12.1-36.4c8-9.7,19.9-14.6,35.2-14.6c7.6,0,13.9,1.2,18.7,3.7c4.8,2.4,8.5,5.3,10.9,8.6c2.4,3.3,4.4,7,5.8,11
		l0.4,1.1l0.9,0.2l4.4-13.4l-1.8-1.2c-2.9-2-6.3-3.8-10-5.6c-3.7-1.7-8.1-3.2-13.1-4.4C513.1,167.1,507.7,166.5,502,166.5
		 M491.5,93.2c-0.4-0.5-0.6-1.1-0.6-1.9c0-0.8,0.2-1.7,0.5-2.7c0.3-0.9,0.6-1.9,0.9-2.8l10.8-30.6h-6.4l-6.5,18.5
		c-0.9,2.3-2.1,4.7-3.6,7.1c-1.5,2.4-3.2,4.5-5.1,6.5c-1.8,1.9-3.7,3.5-5.6,4.7c-1.9,1.2-3.7,1.9-5.4,1.9c-1.1,0-1.9-0.3-2.3-1
		c-0.5-0.7-0.7-1.4-0.7-2.3c0-0.5,0.1-1.2,0.4-2.2c0.2-1,0.6-2.1,1.1-3.4l10.6-29.8l-6.5,0l-9.5,26.3c-0.3,1-0.7,2.1-1.1,3.3
		c-0.4,1.2-0.6,2.3-0.6,3.2c0,2.3,0.8,4,2.3,5.2c1.5,1.2,3.6,1.8,6.2,1.8c1.7,0,3.3-0.4,4.8-1.2c1.6-0.8,3-1.8,4.4-3
		c1.4-1.2,2.7-2.4,3.9-3.8c1.2-1.4,2.2-2.6,3.1-3.7l0.2,0.2c-0.5,1.2-0.9,2.3-1.1,3.2c-0.2,0.9-0.4,1.9-0.4,2.9
		c0,1.9,0.6,3.3,1.8,4.1c1.2,0.8,2.8,1.2,4.8,1.2c1.8,0,3.4-0.4,4.8-1.1c1.3-0.7,2.5-1.6,3.4-2.6c0.9-1,1.6-2,2.2-3
		c0.5-1,0.9-1.7,1.1-2.2l-1.1-0.5c-0.2,0.5-0.6,1.3-1.2,2.2c-0.6,0.9-1.2,1.8-2,2.7c-0.8,0.9-1.6,1.6-2.6,2.3c-0.9,0.7-1.9,1-3,1
		C492.6,93.9,492,93.7,491.5,93.2 M546.7,60c0-1.7-0.8-3.2-2.3-4.3c-1.6-1.1-3.6-1.7-6.2-1.7c-2.1,0-4,0.4-5.8,1.1
		c-1.8,0.7-3.4,1.7-4.6,2.8c-1.3,1.2-2.3,2.5-3,3.9c-0.7,1.4-1.1,2.9-1.1,4.2c0,1.6,0.4,3,1.1,4.2c0.8,1.2,1.6,2.4,2.5,3.6l4.6,6
		c0.9,1.2,1.6,2.3,2,3.3c0.4,1,0.6,2,0.6,3.3c0,0.8-0.2,1.6-0.6,2.5c-0.4,0.9-1.1,1.7-1.9,2.4c-0.8,0.7-1.8,1.3-3,1.8
		s-2.6,0.7-4.1,0.7c-1.5,0-2.8-0.3-3.7-0.9c-0.9-0.6-1.4-1.6-1.4-3c0-0.7,0.2-1.4,0.5-2c0.3-0.6,0.5-1.3,0.5-2c0-0.5-0.2-1-0.7-1.4
		c-0.5-0.4-1-0.6-1.5-0.6c-1.3,0-2.5,0.3-3.4,1c-0.9,0.7-1.3,1.7-1.3,3.1c0,1.1,0.3,2.2,0.9,3c0.6,0.9,1.4,1.6,2.4,2.2
		c1,0.6,2.2,1,3.4,1.3c1.3,0.3,2.6,0.5,4,0.5c1.6,0,3.3-0.3,5.1-0.8c1.8-0.5,3.5-1.3,5.1-2.3c1.6-1,2.9-2.3,3.9-3.8
		c1-1.5,1.6-3.3,1.6-5.4c0-1-0.1-2-0.4-3s-0.8-1.9-1.5-2.8l-5.4-7c-1.1-1.4-2-2.7-2.6-3.7c-0.6-1.1-0.9-2.2-0.9-3.4
		c0-0.9,0.2-1.8,0.5-2.7c0.3-0.9,0.9-1.7,1.6-2.4c0.7-0.7,1.6-1.3,2.7-1.7c1.1-0.4,2.3-0.6,3.8-0.6c2.1,0,3.1,0.8,3.1,2.3
		c0,0.6-0.2,1.1-0.6,1.5c-0.4,0.4-0.6,1-0.6,1.9c0,0.9,0.3,1.6,1,2.1c0.6,0.5,1.4,0.7,2.3,0.7C545.5,63.8,546.7,62.6,546.7,60
		 M585.4,59.7c0,1.6-0.4,3.1-1.3,4.5c-0.9,1.4-2.1,2.7-3.6,3.8c-1.5,1.1-3.2,2-5.2,2.6c-2,0.7-4,1-6.2,1c-1.7,0-3.3-0.1-4.7-0.4
		c0.6-1.6,1.3-3.3,2.4-5.1c1-1.8,2.3-3.6,3.7-5.1c1.4-1.6,3-2.9,4.7-4c1.7-1.1,3.6-1.6,5.5-1.6c1.7,0,2.9,0.4,3.7,1.3
		C585,57.5,585.4,58.5,585.4,59.7 M589.8,65.2c0.9-1.2,1.3-2.7,1.3-4.3c0-1.2-0.3-2.2-0.9-3.1c-0.6-0.8-1.4-1.5-2.4-2.1
		c-1-0.5-2.1-0.9-3.3-1.2c-1.2-0.3-2.5-0.4-3.7-0.4c-3.2,0-6.3,0.9-9.4,2.6c-3.1,1.7-5.8,4-8.2,6.6c-2.4,2.7-4.4,5.6-5.9,8.9
		c-1.5,3.2-2.3,6.3-2.3,9.4c0,1.5,0.3,3.1,0.8,4.7c0.5,1.6,1.3,3.1,2.5,4.4c1.1,1.3,2.6,2.4,4.4,3.3c1.8,0.8,4,1.3,6.7,1.3
		c2.6,0,4.9-0.4,6.8-1.3c1.9-0.9,3.4-1.9,4.7-3c1.3-1.1,2.3-2.2,3-3.3c0.7-1.1,1.3-1.9,1.7-2.3l-1.1-0.6c-0.5,0.6-1.1,1.4-1.9,2.5
		c-0.8,1.1-1.7,2.1-2.8,3.1c-1.1,1-2.4,1.9-3.9,2.7c-1.5,0.8-3.2,1.1-5.2,1.1c-2.6,0-4.8-0.8-6.5-2.4c-1.7-1.6-2.6-4-2.6-7.3
		c0-2.1,0.2-4.1,0.7-6c0.5-1.9,1-3.8,1.7-5.7c0.7,0.1,1.6,0.2,2.6,0.3c1,0.1,2,0.1,3,0.1c0.6,0,1.6-0.1,2.9-0.2
		c1.3-0.1,2.8-0.4,4.4-0.7c1.6-0.3,3.2-0.8,4.9-1.4c1.7-0.6,3.2-1.3,4.6-2.2C587.7,67.4,588.9,66.4,589.8,65.2 M589.5,171.9
		c0.6-0.9,1.2-1.5,1.8-2.1v-0.4l-21.7,0v0.4c1,0.7,2,1.9,3,3.4c1.1,1.6,1.8,3.2,2.1,4.5c0.3,1.3,0.5,2.7,0.5,4.1v73.5
		c0,1.1-0.2,2.8-0.7,5.4c-0.5,2.6-1,4.4-1.7,5.5c-0.6,1.1-1.4,2.1-2.2,3c-0.8,0.8-1.7,1.6-2.8,2.3v0.4l27.7,0v-0.4
		c-1-0.8-1.8-1.4-2.3-2c-0.6-0.6-1.2-1.5-2-2.6c-0.7-1.2-1.4-2.9-2-5.2c-0.6-2.2-0.9-4.4-0.9-6.4l-1.2-35.8h70.6v35.5
		c0,2.2-0.2,4.3-0.6,6.3c-0.4,2-1,3.7-1.7,4.9c-0.7,1.2-1.5,2.2-2.4,3.1c-0.8,0.8-1.8,1.5-2.9,2.3v0.4l27.9,0v-0.4
		c-1.3-0.8-2.2-1.5-2.9-2.3c-0.7-0.7-1.4-1.7-2.3-2.8c-0.6-0.9-1.2-2.5-1.9-4.7c-0.7-2.2-1-4.4-1-6.4v-73.6c0-1,0.1-2.2,0.3-3.6
		c0.2-1.4,0.6-2.7,1.1-3.9c0.5-1.2,1.1-2.2,1.7-3.1c0.5-0.5,0.9-0.9,1.3-1.4v-0.4l-20,0v0.5c0.8,1.1,1.4,1.9,1.7,2.5
		c0.3,0.5,0.7,1.3,1.2,2.4c0.4,1,0.8,2.1,0.9,3.3c0.2,1.1,0.3,2.4,0.3,3.8l-0.4,34.8H587l-0.3-34.8c0-1.3,0.1-2.6,0.2-3.9
		c0.1-1.3,0.4-2.4,0.9-3.3C588.2,173.8,588.8,172.9,589.5,171.9 M679.1,64.7c0,1.2-0.2,2.8-0.6,4.7c-0.4,1.9-0.9,4-1.6,6.1
		c-0.7,2.2-1.6,4.3-2.6,6.5c-1,2.2-2.2,4.1-3.6,5.9c-1.3,1.8-2.8,3.2-4.5,4.3c-1.7,1.1-3.4,1.6-5.3,1.6c-2.3,0-4.2-0.7-5.7-2.2
		c-1.5-1.5-2.3-3.7-2.3-6.8c0-1.6,0.2-3.4,0.6-5.5c0.4-2.1,0.9-4.2,1.6-6.4c0.7-2.2,1.6-4.4,2.6-6.5c1-2.1,2.2-4,3.5-5.6
		c1.3-1.7,2.8-3,4.4-4c1.6-1,3.3-1.5,5.1-1.5c3.1,0,5.3,0.8,6.6,2.5C678.5,59.6,679.1,61.9,679.1,64.7 M682.9,79.3
		c1.5-3.1,2.3-6.4,2.3-9.9c0-1.7-0.3-3.4-0.8-5.2c-0.6-1.8-1.4-3.5-2.6-5c-1.2-1.5-2.6-2.7-4.4-3.7c-1.8-1-3.9-1.4-6.2-1.4
		c-2.6,0-5.4,0.7-8.3,2c-2.9,1.3-5.5,3.1-7.9,5.4c-2.4,2.3-4.3,5-5.8,8.2c-1.5,3.2-2.3,6.6-2.3,10.2c0,2,0.3,4,1,5.8
		c0.7,1.8,1.6,3.4,2.9,4.8c1.3,1.4,2.8,2.5,4.5,3.3c1.7,0.8,3.7,1.3,5.9,1.3c2.6,0,5.3-0.7,8.1-2c2.8-1.4,5.4-3.2,7.8-5.6
		C679.4,85.2,681.3,82.4,682.9,79.3 M744.9,35.4c0.6-1,0.9-2,0.9-3.1c0-0.7-0.2-1.5-0.5-2.3c-0.3-0.8-0.9-1.6-1.6-2.3
		c-0.7-0.7-1.7-1.3-2.8-1.7c-1.1-0.5-2.5-0.7-4-0.7c-2.6,0-5.3,0.6-7.9,1.9c-2.6,1.3-5.1,3.1-7.3,5.3c-2.3,2.3-4.3,4.9-6.1,7.9
		c-1.8,3-3.2,6.3-4.1,9.8l-1.4,5h-13l-0.4,1.3h13l-10.1,37.3c-2.1,7.7-4.4,13.3-6.8,16.8c-2.4,3.5-4.8,5.2-7.4,5.2
		c-0.8,0-1.5-0.2-2-0.5c-0.5-0.4-0.8-0.9-0.8-1.7c0-0.8,0.2-1.6,0.5-2.3c0.3-0.7,0.5-1.4,0.5-2c0-1-0.2-1.6-0.7-1.9
		c-0.5-0.3-1.1-0.5-1.9-0.5c-1.5,0-2.6,0.4-3.3,1.3c-0.7,0.8-1.1,1.8-1.1,3c0,1.2,0.2,2.2,0.7,2.9c0.5,0.8,1.1,1.4,1.8,1.8
		c0.7,0.5,1.5,0.8,2.4,0.9c0.9,0.2,1.7,0.3,2.5,0.3c2.7,0,5.3-0.8,7.7-2.5c2.4-1.7,4.7-3.9,6.7-6.6c2.1-2.8,3.9-6,5.5-9.6
		c1.6-3.6,2.9-7.3,4-11.2l8.2-30.6h11.3l0.4-1.3h-11.3l1.9-6.9c0.4-1.6,1.1-3.6,2-6c0.9-2.4,2.1-4.8,3.6-7.2
		c1.5-2.3,3.2-4.4,5.3-6.1c2.1-1.7,4.5-2.5,7.3-2.5c0.9,0,1.7,0.2,2.4,0.5c0.7,0.3,1.1,1,1.1,2c0,0.5-0.1,0.9-0.3,1.3
		c-0.2,0.4-0.5,0.7-0.7,1.1c-0.3,0.4-0.5,0.8-0.8,1.3c-0.2,0.5-0.4,1-0.4,1.6c0,0.7,0.3,1.3,0.9,1.8c0.6,0.5,1.5,0.8,2.9,0.8
		C743.2,36.9,744.3,36.4,744.9,35.4 M814.8,170l0.2-0.1l0-0.4l-24.8,0v0.3c1.2,0.7,2.3,1.3,3.1,2.1c0.9,0.7,1.9,1.9,3.2,3.4
		c1.3,1.5,2.4,4.2,3.4,8.1c1,3.9,1.5,6.8,1.5,8.7l0.4,56.6l-0.8,0.3c-5.5-5.6-12.2-12.5-20-20.5c-7.7-8-17.3-18.2-28.4-30.2
		c-11.2-12.1-17.5-19-18.8-20.7l-6.4-8.2l-21.1,0v0.4c0.4,0.3,1,0.8,1.8,1.7c0.9,0.9,1.9,1.9,2.7,2.8c0.9,1,1.8,2.2,2.6,3.7
		c0.9,1.5,1.3,3.2,1.3,4.8v66.3c0,2.1-0.4,5.2-1.2,9.1c-0.8,4.1-1.8,6.7-3,8.1c-1.2,1.3-2.3,2.4-3.3,3.2c-1,0.7-2.1,1.4-3.3,2v0.4
		l26.1,0l0-0.3c-1.7-0.6-3.1-1.3-4.2-2c-1.2-0.8-2.2-1.7-3-2.8c-0.9-1.1-1.8-3.4-2.7-6.9c-0.2-0.9-0.4-1.8-0.6-2.6
		c-0.5-2.6-0.8-5.3-0.8-8l-1.3-69.3c0,0,0,0,0,0v0l0.8-0.3c3.4,3.5,7.9,8.3,13.4,14.3c5.6,6,12.6,13.7,20.8,22.7
		c8.3,9.2,15.2,16.7,20.6,22.6c5.5,6,9.2,10,11.2,12.4c2.1,2.4,5.1,5.8,8.8,10.1c3.7,4.3,7.3,8.5,10.8,12.5h1.4V192
		c0-2.8,0.2-5.5,0.7-7.9c0.1-0.8,0.3-1.6,0.5-2.4c0.8-3.1,1.9-5.4,3.3-7.1c1.4-1.9,2.5-3,3.4-3.6C813.6,170.7,814.2,170.3,814.8,170
		 M934.4,272l6.5-21.2l-0.7,0.1c-4.5,6.1-11.2,10.7-20.2,13.7c-8.9,3-21.6,4.5-37.6,4.5c-8.3,0-13.8-0.6-16.6-1.9
		c-3-1.3-4.5-5.2-4.5-11.9l-1.1-36.6h32.6c4,0,7.2,0.2,9.6,0.6c2.3,0.4,4.5,1.1,6.4,2.2c1.9,1.1,3.5,2.2,4.7,3.4
		c1.1,1.2,2.3,2.6,3.5,4.4h0.6c0-0.6-0.1-1.8-0.2-4.3c-0.2-3-0.3-5.6-0.3-7.9c0-0.1,0-0.8,0.3-4.9c0.2-2.8,0.2-5.3,0.3-7.4H917
		c-1.6,3.3-3.7,5.8-6.2,7.5c-2.6,1.8-5.2,2.8-7.7,3.1c-2.5,0.3-5.9,0.5-10.2,0.5h-33v-44.1h3c7.2,0,14.5,0.1,21.6,0.2
		c7.1,0.1,13.2,0.4,18.1,0.9c4.9,0.4,9,1.3,12.3,2.7c3.2,1.3,5.8,2.5,7.6,3.5c1.8,1,4.1,2.9,6.7,5.5l1.4,1.4l0.9,0.1l-5.5-16.6
		h-84.5v0.4c0.7,0.6,1.3,1.2,1.9,1.8c0.6,0.7,1.3,1.6,1.9,2.6c0.6,1,1.2,2.3,1.7,3.7c0.5,1.5,0.8,2.6,0.8,3.4v70.5
		c0,2.6-0.2,5.4-0.5,8.4c-0.4,3.1-1,5.2-2.1,6.4c-1,1.3-2,2.4-3,3.1c-1,0.7-2.2,1.3-3.6,1.9v0.3C841.1,272,934.4,272,934.4,272
		 M1013.5,216.8h-30.2l0.1-44.5h10.9c14.5,0,25,0.3,31.3,1c6.4,0.7,11.3,2.5,14.6,5.5c3.3,3,5,8.1,5,15.1c0,6.5-2.4,12-7.2,16.4
		C1033.2,214.6,1025,216.8,1013.5,216.8 M1072,272v-0.5c-1.1-0.7-1.9-1.3-2.6-1.8c-0.7-0.5-1.9-1.5-3.5-3c-0.2-0.2-0.5-0.5-0.8-0.9
		c-1.7-2-4.5-7.3-8.3-15.9c-4.2-9.5-7.1-15.4-8.5-17.7c-0.3-0.5-0.7-1.1-1.1-1.5c-1.1-1.4-2.5-2.6-4-3.5c-2.2-1.3-5.8-3.1-10.9-5.3
		l-5.8-2.6l0-0.2l-0.4-0.2l0.5-0.1l0-0.4l6.6-1.2c9.7-1.7,16.7-4.6,20.7-8.6c0.5-0.5,1-1,1.4-1.5c3.1-3.6,4.6-7.7,4.6-12.2
		c0-5.4-1.3-9.8-3.9-13.3c-0.8-1.1-1.8-2.1-2.9-2.9c-4.7-3.7-10.5-6.2-17.4-7.4c-6.9-1.2-14.8-1.8-23.6-1.8h-46v0.5
		c0.7,0.7,1.3,1.3,1.8,1.9c0.5,0.7,1.1,1.7,2,3.1c0.8,1.4,1.4,2.9,1.9,4.5c0.4,1.6,0.6,3.4,0.6,5.4v70.5c0,0.9-0.3,2.7-1,5.4
		c-0.7,2.7-1.6,4.9-2.7,6.6c-1.1,1.6-2.8,3-5.2,4.2v0.4l30.5,0v-0.4c-1.1-0.4-2.1-0.9-2.9-1.6c-0.9-0.7-1.8-1.7-2.7-2.8
		c0,0,0,0,0-0.1c-0.1-0.1-0.1-0.1-0.2-0.2c-0.9-1.1-1.6-2.8-2.2-5.1s-0.9-4.4-0.9-6.4l-1.8-35.1h0.1l0-0.4h5.9
		c14.3,0,23.8,0.3,28.1,0.9c4.4,0.6,8.3,2.1,11.7,4.6c3.3,2.5,6.1,6.1,8.3,11c2.2,4.8,4.5,11,7.1,18.5c2.5,7.5,4.3,12.3,5.3,14.4
		l1.4,3H1072z"/>
</g>
</svg>
